<?xml version="1.0" encoding="UTF-8" standalone="no"?><!DOCTYPE svg PUBLIC "-//W3C//DTD SVG 1.1//EN" "http://www.w3.org/Graphics/SVG/1.1/DTD/svg11.dtd"><svg width="100%" height="100%" viewBox="0 0 32 32" version="1.1" xmlns="http://www.w3.org/2000/svg" xmlns:xlink="http://www.w3.org/1999/xlink" xml:space="preserve" xmlns:serif="http://www.serif.com/" style="fill-rule:evenodd;clip-rule:evenodd;stroke-linejoin:round;stroke-miterlimit:2;"><path d="M24.72,13.899c1.092,-2.867 0.704,-6.088 -1.037,-8.614c-1.742,-2.526 -4.614,-4.035 -7.682,-4.035c-0.001,0 -0.001,0 -0.002,0c-3.068,0 -5.94,1.509 -7.682,4.035c-1.741,2.526 -2.129,5.747 -1.037,8.614c1.918,5.04 4.085,10.733 5.683,14.93c0.48,1.26 1.688,2.093 3.037,2.093c1.349,0 2.558,-0.833 3.037,-2.093c1.598,-4.197 3.765,-9.89 5.683,-14.93Z" style="fill:url(#_Linear1);"/><circle cx="16" cy="10.824" r="6.301" style="fill:url(#_Linear2);"/><path d="M11.795,15.514c1.115,1.001 2.589,1.61 4.205,1.61c1.616,0 3.09,-0.609 4.205,-1.61c0.003,-0.297 0.004,-0.506 0.004,-0.542l-0,-0.706c-0,-1.411 -1.145,-2.556 -2.556,-2.556c-1.021,0 -2.285,0 -3.306,0c-1.411,0 -2.556,1.145 -2.556,2.556c0,0.245 0,0.487 0,0.706c0,0.036 0.002,0.245 0.004,0.542Z" style="fill:url(#_Linear3);"/><circle cx="16" cy="8.874" r="2.229" style="fill:url(#_Linear4);"/><defs><linearGradient id="_Linear1" x1="0" y1="0" x2="1" y2="0" gradientUnits="userSpaceOnUse" gradientTransform="matrix(1.11588e-15,18.2238,-18.2238,1.11588e-15,17.5,22.7762)"><stop offset="0" style="stop-color:#db1b32;stop-opacity:1"/><stop offset="1" style="stop-color:#920011;stop-opacity:1"/></linearGradient><linearGradient id="_Linear2" x1="0" y1="0" x2="1" y2="0" gradientUnits="userSpaceOnUse" gradientTransform="matrix(8.87869e-16,14.5,-14.5,8.87869e-16,16.598,13.5)"><stop offset="0" style="stop-color:#fff;stop-opacity:1"/><stop offset="1" style="stop-color:#b3b3b3;stop-opacity:1"/></linearGradient><linearGradient id="_Linear3" x1="0" y1="0" x2="1" y2="0" gradientUnits="userSpaceOnUse" gradientTransform="matrix(4.89859e-16,8,-8,4.89859e-16,16.0307,14.5)"><stop offset="0" style="stop-color:#2196f3;stop-opacity:1"/><stop offset="1" style="stop-color:#005faa;stop-opacity:1"/></linearGradient><linearGradient id="_Linear4" x1="0" y1="0" x2="1" y2="0" gradientUnits="userSpaceOnUse" gradientTransform="matrix(4.8204e-16,7.87232,-7.87232,4.8204e-16,16.052,8.87405)"><stop offset="0" style="stop-color:#ffb7bd;stop-opacity:1"/><stop offset="1" style="stop-color:#ff2c3e;stop-opacity:1"/></linearGradient></defs></svg>