<?xml version="1.0" encoding="UTF-8" standalone="no"?><!DOCTYPE svg PUBLIC "-//W3C//DTD SVG 1.1//EN" "http://www.w3.org/Graphics/SVG/1.1/DTD/svg11.dtd"><svg width="100%" height="100%" viewBox="0 0 32 32" version="1.1" xmlns="http://www.w3.org/2000/svg" xmlns:xlink="http://www.w3.org/1999/xlink" xml:space="preserve" xmlns:serif="http://www.serif.com/" style="fill-rule:evenodd;clip-rule:evenodd;stroke-linejoin:round;stroke-miterlimit:2;"><path d="M20.538,10.975l0,-0.764c0,-1.519 -1.231,-2.75 -2.75,-2.75c-1.104,-0 -2.472,-0 -3.576,-0c-1.519,-0 -2.75,1.231 -2.75,2.75c-0,0.264 -0,0.526 -0,0.764c-0,0.464 0.184,0.909 0.512,1.237c0.328,0.328 0.773,0.513 1.238,0.513l5.576,-0c0.465,-0 0.91,-0.185 1.238,-0.513c0.328,-0.328 0.512,-0.773 0.512,-1.237Z" style="fill:url(#_Linear1);"/><path d="M10.797,25.986l-0,-0.764c-0,-1.519 -1.231,-2.75 -2.75,-2.75c-1.105,-0 -2.473,-0 -3.577,-0c-1.519,-0 -2.75,1.231 -2.75,2.75c-0,0.265 -0,0.526 -0,0.764c-0,0.464 0.184,0.909 0.513,1.237c0.328,0.328 0.773,0.513 1.237,0.513l5.577,-0c0.464,-0 0.909,-0.185 1.237,-0.513c0.328,-0.328 0.513,-0.773 0.513,-1.237Z" style="fill:url(#_Linear2);"/><path d="M30.28,25.986l0,-0.764c0,-1.519 -1.231,-2.75 -2.75,-2.75c-1.104,-0 -2.472,-0 -3.577,-0c-1.519,-0 -2.75,1.231 -2.75,2.75c0,0.265 0,0.526 0,0.764c0,0.464 0.185,0.909 0.513,1.237c0.328,0.328 0.773,0.513 1.237,0.513l5.577,-0c0.464,-0 0.909,-0.185 1.237,-0.513c0.329,-0.328 0.513,-0.773 0.513,-1.237Z" style="fill:url(#_Linear3);"/><circle cx="16" cy="4.375" r="2.396" style="fill:url(#_Linear4);"/><circle cx="6.258" cy="19.386" r="2.396" style="fill:url(#_Linear5);"/><circle cx="25.742" cy="19.386" r="2.396" style="fill:url(#_Linear6);"/><path d="M20.056,6.699c3.854,1.506 6.668,5.095 7.055,9.38c0.037,0.412 0.402,0.716 0.814,0.679c0.413,-0.037 0.717,-0.402 0.68,-0.814c-0.439,-4.861 -3.631,-8.933 -8.002,-10.642c-0.386,-0.151 -0.821,0.039 -0.972,0.425c-0.151,0.385 0.04,0.821 0.425,0.972Z" style="fill:url(#_Linear7);"/><path d="M20.056,27.489c-1.257,0.491 -2.625,0.761 -4.056,0.761c-1.431,0 -2.799,-0.27 -4.056,-0.761c-0.386,-0.151 -0.821,0.039 -0.972,0.425c-0.151,0.385 0.04,0.821 0.425,0.972c1.427,0.557 2.98,0.864 4.603,0.864c1.623,-0 3.176,-0.307 4.603,-0.864c0.385,-0.151 0.576,-0.587 0.425,-0.972c-0.151,-0.386 -0.586,-0.576 -0.972,-0.425Z" style="fill:url(#_Linear8);"/><path d="M4.889,16.079c0.387,-4.285 3.201,-7.874 7.055,-9.38c0.385,-0.151 0.576,-0.587 0.425,-0.972c-0.151,-0.386 -0.586,-0.576 -0.972,-0.425c-4.371,1.709 -7.563,5.781 -8.002,10.642c-0.037,0.412 0.267,0.777 0.68,0.814c0.412,0.037 0.777,-0.267 0.814,-0.679Z" style="fill:url(#_Linear9);"/><defs><linearGradient id="_Linear1" x1="0" y1="0" x2="1" y2="0" gradientUnits="userSpaceOnUse" gradientTransform="matrix(1.00638e-15,16.4354,-16.4354,1.00638e-15,16.1392,10)"><stop offset="0" style="stop-color:#1c8ee8;stop-opacity:1"/><stop offset="1" style="stop-color:#00589d;stop-opacity:1"/></linearGradient><linearGradient id="_Linear2" x1="0" y1="0" x2="1" y2="0" gradientUnits="userSpaceOnUse" gradientTransform="matrix(9.12132e-16,14.8962,-14.8962,9.12132e-16,6,25.1038)"><stop offset="0" style="stop-color:#1c8ee8;stop-opacity:1"/><stop offset="1" style="stop-color:#00589d;stop-opacity:1"/></linearGradient><linearGradient id="_Linear3" x1="0" y1="0" x2="1" y2="0" gradientUnits="userSpaceOnUse" gradientTransform="matrix(9.12132e-16,14.8962,-14.8962,9.12132e-16,6,25.1038)"><stop offset="0" style="stop-color:#1c8ee8;stop-opacity:1"/><stop offset="1" style="stop-color:#00589d;stop-opacity:1"/></linearGradient><linearGradient id="_Linear4" x1="0" y1="0" x2="1" y2="0" gradientUnits="userSpaceOnUse" gradientTransform="matrix(7.19734e-16,11.7542,-11.7542,7.19734e-16,16.5,4.74585)"><stop offset="0" style="stop-color:#ffb7bd;stop-opacity:1"/><stop offset="1" style="stop-color:#ff2c3e;stop-opacity:1"/></linearGradient><linearGradient id="_Linear5" x1="0" y1="0" x2="1" y2="0" gradientUnits="userSpaceOnUse" gradientTransform="matrix(7.90403e-16,12.9083,-12.9083,7.90403e-16,6.3212,19.0917)"><stop offset="0" style="stop-color:#ffb7bd;stop-opacity:1"/><stop offset="1" style="stop-color:#ff2c3e;stop-opacity:1"/></linearGradient><linearGradient id="_Linear6" x1="0" y1="0" x2="1" y2="0" gradientUnits="userSpaceOnUse" gradientTransform="matrix(7.90403e-16,12.9083,-12.9083,7.90403e-16,6.3212,19.0917)"><stop offset="0" style="stop-color:#ffb7bd;stop-opacity:1"/><stop offset="1" style="stop-color:#ff2c3e;stop-opacity:1"/></linearGradient><linearGradient id="_Linear7" x1="0" y1="0" x2="1" y2="0" gradientUnits="userSpaceOnUse" gradientTransform="matrix(1.0214e-15,16.6807,-16.6807,1.0214e-15,9,7.75792)"><stop offset="0" style="stop-color:#2196f3;stop-opacity:1"/><stop offset="1" style="stop-color:#005faa;stop-opacity:1"/></linearGradient><linearGradient id="_Linear8" x1="0" y1="0" x2="1" y2="0" gradientUnits="userSpaceOnUse" gradientTransform="matrix(6.12323e-16,10,-10,6.12323e-16,16.4023,28.5)"><stop offset="0" style="stop-color:#2196f3;stop-opacity:1"/><stop offset="1" style="stop-color:#005faa;stop-opacity:1"/></linearGradient><linearGradient id="_Linear9" x1="0" y1="0" x2="1" y2="0" gradientUnits="userSpaceOnUse" gradientTransform="matrix(1.0214e-15,16.6807,-16.6807,1.0214e-15,9,7.75792)"><stop offset="0" style="stop-color:#2196f3;stop-opacity:1"/><stop offset="1" style="stop-color:#005faa;stop-opacity:1"/></linearGradient></defs></svg>