<?xml version="1.0" encoding="UTF-8" standalone="no"?><!DOCTYPE svg PUBLIC "-//W3C//DTD SVG 1.1//EN" "http://www.w3.org/Graphics/SVG/1.1/DTD/svg11.dtd"><svg width="100%" height="100%" viewBox="0 0 32 32" version="1.1" xmlns="http://www.w3.org/2000/svg" xmlns:xlink="http://www.w3.org/1999/xlink" xml:space="preserve" xmlns:serif="http://www.serif.com/" style="fill-rule:evenodd;clip-rule:evenodd;stroke-linejoin:round;stroke-miterlimit:2;"><path d="M12.048,5.552c-0.287,0.186 -0.412,0.542 -0.304,0.866c0.108,0.324 0.421,0.535 0.762,0.512c0.283,-0.019 0.571,-0.029 0.86,-0.029c5.829,-0 10.616,3.95 10.616,8.897c0,2.443 -1.181,4.651 -3.071,6.253c-0.259,0.219 -0.338,0.586 -0.193,0.893c0.146,0.307 0.479,0.478 0.813,0.416c0.219,-0.04 0.435,-0.085 0.648,-0.136l3.526,2.262c0.567,0.364 1.28,0.374 1.856,0.025c0.556,-0.337 0.898,-0.961 0.882,-1.633l-0.103,-4.219c1.516,-1.694 2.41,-3.81 2.41,-6.1c0,-5.496 -5.201,-10.023 -11.677,-10.023c-2.64,-0 -5.074,0.753 -7.025,2.016Z" style="fill:url(#_Linear1);"/><path d="M10.13,25.819c1.03,0.245 2.115,0.376 3.236,0.376c6.718,-0 12.116,-4.695 12.116,-10.397c0,-5.702 -5.398,-10.397 -12.116,-10.397c-6.718,-0 -12.116,4.695 -12.116,10.397c0,2.378 0.93,4.575 2.507,6.334c0,-0 -0.107,4.4 -0.107,4.4c0,0 0,0 0,0c-0.017,0.689 0.334,1.328 0.902,1.672c0.59,0.357 1.319,0.348 1.9,-0.025l3.678,-2.36Z" style="fill:url(#_Linear2);"/><path d="M7.306,13.8c-1.243,-0 -2.253,1.009 -2.253,2.253c-0,1.244 1.01,2.254 2.253,2.254c1.244,-0 2.254,-1.01 2.254,-2.254c-0,-1.244 -1.01,-2.253 -2.254,-2.253Zm6.194,-0c-1.244,-0 -2.253,1.009 -2.253,2.253c-0,1.244 1.009,2.254 2.253,2.254c1.244,-0 2.253,-1.01 2.253,-2.254c0,-1.244 -1.009,-2.253 -2.253,-2.253Zm6.194,-0c-1.244,-0 -2.254,1.009 -2.254,2.253c0,1.244 1.01,2.254 2.254,2.254c1.243,-0 2.253,-1.01 2.253,-2.254c0,-1.244 -1.01,-2.253 -2.253,-2.253Z" style="fill:url(#_Linear3);"/><defs><linearGradient id="_Linear1" x1="0" y1="0" x2="1" y2="0" gradientUnits="userSpaceOnUse" gradientTransform="matrix(-36,36,-36,-36,24.9696,10)"><stop offset="0" style="stop-color:#d9defb;stop-opacity:1"/><stop offset="1" style="stop-color:#4460ff;stop-opacity:1"/></linearGradient><linearGradient id="_Linear2" x1="0" y1="0" x2="1" y2="0" gradientUnits="userSpaceOnUse" gradientTransform="matrix(-47.5672,47.5672,-47.5672,-47.5672,12.4556,20.0675)"><stop offset="0" style="stop-color:#2196f3;stop-opacity:1"/><stop offset="1" style="stop-color:#005faa;stop-opacity:1"/></linearGradient><linearGradient id="_Linear3" x1="0" y1="0" x2="1" y2="0" gradientUnits="userSpaceOnUse" gradientTransform="matrix(1.58879e-15,25.9469,-25.9469,1.58879e-15,13.25,16.0531)"><stop offset="0" style="stop-color:#d9defb;stop-opacity:1"/><stop offset="1" style="stop-color:#4460ff;stop-opacity:1"/></linearGradient></defs></svg>