<?xml version="1.0" encoding="UTF-8" standalone="no"?><!DOCTYPE svg PUBLIC "-//W3C//DTD SVG 1.1//EN" "http://www.w3.org/Graphics/SVG/1.1/DTD/svg11.dtd"><svg width="100%" height="100%" viewBox="0 0 32 32" version="1.1" xmlns="http://www.w3.org/2000/svg" xmlns:xlink="http://www.w3.org/1999/xlink" xml:space="preserve" xmlns:serif="http://www.serif.com/" style="fill-rule:evenodd;clip-rule:evenodd;stroke-linejoin:round;stroke-miterlimit:2;"><path d="M3.166,11.403c0.308,-0.277 0.333,-0.751 0.057,-1.06c-0.277,-0.308 -0.751,-0.333 -1.059,-0.057c-0.561,0.504 -0.914,1.234 -0.914,2.047l0,14.667c0,1.519 1.231,2.75 2.75,2.75c5.154,-0 18.846,-0 24,-0c1.519,0 2.75,-1.231 2.75,-2.75l-0,-14.667c-0,-0.729 -0.29,-1.429 -0.805,-1.944c-0.293,-0.293 -0.768,-0.293 -1.061,-0c-0.293,0.292 -0.293,0.768 -0,1.06l-25.718,-0.046Z" style="fill:url(#_Linear1);"/><path d="M5.536,22.667l3.665,-0c0.414,-0 0.75,-0.336 0.75,-0.75c0,-0.414 -0.336,-0.75 -0.75,-0.75l-3.665,-0c-0.414,-0 -0.75,0.336 -0.75,0.75c-0,0.414 0.336,0.75 0.75,0.75Z" style="fill:url(#_Linear2);"/><path d="M5.536,25.917l6.964,-0c0.414,-0 0.75,-0.336 0.75,-0.75c0,-0.414 -0.336,-0.75 -0.75,-0.75l-6.964,-0c-0.414,-0 -0.75,0.336 -0.75,0.75c-0,0.414 0.336,0.75 0.75,0.75Z" style="fill:url(#_Linear3);"/><path d="M24.679,7.733l-0.011,0.016l-17.336,-0c-0.229,-0.345 -0.695,-0.439 -1.04,-0.211l-4.042,2.681c-0.345,0.229 -0.439,0.695 -0.21,1.04c0.145,0.22 11.567,6.713 11.567,6.713c1.479,0.863 3.307,0.863 4.786,0c0,0 11.422,-6.493 11.567,-6.713c0.229,-0.345 0.135,-0.811 -0.21,-1.04l-4.042,-2.681c-0.34,-0.225 -0.797,-0.137 -1.029,0.195Z" style="fill:url(#_Linear4);"/><path d="M11.137,6.125l9.726,0l0.008,0.005c0.344,0.222 0.804,0.127 1.031,-0.215c0.229,-0.345 0.135,-0.811 -0.21,-1.04c-0,-0 -1.621,-1.075 -3.067,-2.034c-1.591,-1.055 -3.659,-1.055 -5.25,0c-1.446,0.959 -3.067,2.034 -3.067,2.034c-0.345,0.229 -0.439,0.695 -0.21,1.04c0.229,0.344 0.694,0.439 1.039,0.21Z" style="fill:url(#_Linear5);"/><path d="M5.957,7.5c-0,-0.729 0.29,-1.429 0.805,-1.945c0.516,-0.515 1.216,-0.805 1.945,-0.805c3.573,0 11.013,0 14.586,-0c0.729,-0 1.429,0.29 1.945,0.805c0.515,0.516 0.805,1.216 0.805,1.945l0,6.01l-7.65,4.462c-1.479,0.863 -3.307,0.863 -4.786,0l-7.65,-4.462l-0,-6.01Z" style="fill:url(#_Linear6);"/><path d="M13,10.04l6,-0c0.414,-0 0.75,-0.337 0.75,-0.75c0,-0.414 -0.336,-0.75 -0.75,-0.75l-6,-0c-0.414,-0 -0.75,0.336 -0.75,0.75c0,0.413 0.336,0.75 0.75,0.75Z" style="fill:url(#_Linear7);"/><path d="M13,13.363l6,0c0.414,0 0.75,-0.336 0.75,-0.75c-0,-0.414 -0.336,-0.75 -0.75,-0.75l-6,0c-0.414,0 -0.75,0.336 -0.75,0.75c-0,0.414 0.336,0.75 0.75,0.75Z" style="fill:url(#_Linear8);"/><defs><linearGradient id="_Linear1" x1="0" y1="0" x2="1" y2="0" gradientUnits="userSpaceOnUse" gradientTransform="matrix(1.59479e-15,26.0449,-26.0449,1.59479e-15,18.3063,25.2051)"><stop offset="0" style="stop-color:#feb340;stop-opacity:1"/><stop offset="1" style="stop-color:#cb7b00;stop-opacity:1"/></linearGradient><linearGradient id="_Linear2" x1="0" y1="0" x2="1" y2="0" gradientUnits="userSpaceOnUse" gradientTransform="matrix(5.56194e-16,9.08333,-9.08333,5.56194e-16,8,24.4167)"><stop offset="0" style="stop-color:#daeeff;stop-opacity:1"/><stop offset="1" style="stop-color:#48abff;stop-opacity:1"/></linearGradient><linearGradient id="_Linear3" x1="0" y1="0" x2="1" y2="0" gradientUnits="userSpaceOnUse" gradientTransform="matrix(5.56194e-16,9.08333,-9.08333,5.56194e-16,8,24.4167)"><stop offset="0" style="stop-color:#daeeff;stop-opacity:1"/><stop offset="1" style="stop-color:#48abff;stop-opacity:1"/></linearGradient><linearGradient id="_Linear4" x1="0" y1="0" x2="1" y2="0" gradientUnits="userSpaceOnUse" gradientTransform="matrix(2.77371e-16,4.52982,-4.52982,2.77371e-16,27.4618,10.7333)"><stop offset="0" style="stop-color:#fe8745;stop-opacity:1"/><stop offset="1" style="stop-color:#cf4a00;stop-opacity:1"/></linearGradient><linearGradient id="_Linear5" x1="0" y1="0" x2="1" y2="0" gradientUnits="userSpaceOnUse" gradientTransform="matrix(2.29622e-16,3.75001,-3.75001,2.29622e-16,16.052,3.74999)"><stop offset="0" style="stop-color:#fe8745;stop-opacity:1"/><stop offset="1" style="stop-color:#cf4a00;stop-opacity:1"/></linearGradient><linearGradient id="_Linear6" x1="0" y1="0" x2="1" y2="0" gradientUnits="userSpaceOnUse" gradientTransform="matrix(1.07447e-15,17.5473,-17.5473,1.07447e-15,16,15.2997)"><stop offset="0" style="stop-color:#daeeff;stop-opacity:1"/><stop offset="1" style="stop-color:#48abff;stop-opacity:1"/></linearGradient><linearGradient id="_Linear7" x1="0" y1="0" x2="1" y2="0" gradientUnits="userSpaceOnUse" gradientTransform="matrix(4.4794e-16,7.31541,-7.31541,4.4794e-16,16,11.6846)"><stop offset="0" style="stop-color:#00a1ff;stop-opacity:1"/><stop offset="1" style="stop-color:#006199;stop-opacity:1"/></linearGradient><linearGradient id="_Linear8" x1="0" y1="0" x2="1" y2="0" gradientUnits="userSpaceOnUse" gradientTransform="matrix(4.4794e-16,7.31541,-7.31541,4.4794e-16,16,11.6846)"><stop offset="0" style="stop-color:#00a1ff;stop-opacity:1"/><stop offset="1" style="stop-color:#006199;stop-opacity:1"/></linearGradient></defs></svg>